 <svg version="1.0" xmlns="http://www.w3.org/2000/svg" width="500.000000pt" height="500.000000pt" viewBox="0 0 700.000000 617.000000" preserveAspectRatio="xMidYMid meet">
<metadata>
Created by potrace 1.12, written by Peter Selinger 2001-2015
</metadata>
<g transform="translate(0.000000,617.000000) scale(0.100000,-0.100000)" fill="#ffffff" stroke="none">
<path d="M2996 4975 c-11 -8 -26 -15 -34 -15 -7 0 -66 -36 -129 -81 -109 -76
-260 -215 -307 -284 -12 -17 -27 -37 -34 -45 -36 -43 -122 -165 -122 -175 0
-7 -9 -22 -20 -35 -11 -12 -22 -38 -26 -56 -3 -18 -12 -38 -19 -44 -8 -7 -19
-37 -25 -68 -7 -31 -20 -71 -31 -88 -11 -18 -29 -90 -43 -175 -40 -235 -26
-515 34 -664 4 -11 16 -47 25 -80 9 -33 25 -76 36 -96 10 -20 19 -42 19 -48 0
-5 14 -32 30 -58 17 -26 30 -53 30 -61 0 -7 19 -41 41 -74 l42 -61 -1 -221
c-2 -409 -13 -546 -42 -546 -11 0 -40 -133 -40 -180 1 -19 1 -61 0 -92 l0 -57
36 -7 c23 -4 44 -2 56 5 15 9 24 7 48 -11 29 -21 32 -21 58 -6 15 9 32 32 37
50 6 18 19 49 30 68 15 27 20 54 20 115 -1 73 -3 84 -34 132 -33 51 -33 52
-21 105 8 31 13 129 14 235 1 100 5 185 9 189 10 10 66 -21 97 -55 36 -39 107
-92 163 -121 26 -14 54 -34 62 -46 22 -34 33 -241 25 -454 -4 -107 -12 -207
-18 -221 -6 -14 -34 -45 -64 -68 -81 -65 -97 -90 -115 -183 -18 -97 -14 -152
18 -216 12 -26 27 -57 32 -69 6 -12 26 -33 46 -46 43 -29 158 -54 174 -38 6 6
21 11 34 11 13 0 23 3 23 8 0 4 24 33 53 65 54 57 54 57 75 175 12 64 22 125
22 135 0 25 -53 103 -105 153 l-41 41 2 184 c4 234 11 405 20 431 5 17 12 19
44 14 31 -5 72 -21 109 -44 7 -3 3 -220 -4 -242 -3 -10 3 -37 15 -60 15 -29
19 -50 14 -75 -5 -28 -2 -36 20 -50 38 -25 59 -16 75 35 7 25 23 64 34 86 16
32 19 52 14 92 -7 56 7 160 22 175 7 7 40 5 98 -5 62 -11 93 -13 109 -6 48 22
52 10 46 -134 -3 -73 -5 -160 -4 -193 1 -33 -5 -103 -13 -156 -12 -85 -18
-103 -54 -155 -49 -72 -64 -151 -37 -202 9 -17 16 -45 16 -61 0 -41 28 -55 97
-48 40 4 55 2 61 -9 4 -8 25 -17 45 -21 45 -7 49 0 71 152 12 80 13 111 5 121
-6 8 -9 24 -5 37 3 14 -2 36 -15 56 -19 31 -20 40 -9 98 7 43 7 69 0 82 -6 12
-7 37 -1 68 5 26 8 107 6 178 -1 72 0 146 3 167 4 34 7 36 46 41 22 3 62 11
89 18 63 17 70 8 56 -64 -5 -32 -7 -68 -3 -80 4 -12 8 -50 8 -85 2 -57 -1 -65
-27 -88 -26 -23 -28 -29 -22 -72 10 -73 28 -131 43 -137 8 -3 37 -8 66 -11 52
-6 53 -6 60 21 4 15 17 40 29 57 20 27 22 39 19 146 -9 411 -11 393 46 408 13
4 52 26 88 50 36 24 73 44 83 44 10 0 42 18 71 40 29 22 57 40 61 40 4 0 11 9
14 20 4 11 33 39 66 62 32 23 59 45 59 49 0 4 14 23 31 41 49 52 134 161 147
188 21 41 38 69 54 87 20 22 38 135 26 157 -16 29 -64 18 -144 -34 -42 -27
-83 -50 -90 -50 -8 0 -33 -13 -56 -30 -22 -16 -52 -30 -65 -30 -12 0 -23 -4
-23 -9 0 -4 -26 -16 -57 -26 -32 -9 -83 -25 -113 -35 -63 -21 -221 -40 -332
-40 -144 -1 -225 6 -248 22 -14 9 -56 22 -95 29 -38 7 -90 23 -114 36 -24 13
-52 23 -61 23 -10 0 -23 7 -30 15 -6 8 -22 17 -33 21 -12 4 -32 14 -43 23 -12
9 -32 23 -44 31 -72 48 -174 131 -231 189 -60 61 -219 276 -219 297 0 5 -9 27
-19 49 -33 66 -61 134 -61 145 0 5 -11 43 -25 84 -21 61 -26 102 -31 223 -3
81 -8 151 -10 155 -10 15 37 252 55 282 11 17 23 49 27 71 4 22 15 51 25 64
11 13 19 31 19 40 0 9 7 27 17 40 9 13 27 44 40 70 14 25 41 66 61 90 26 32
36 55 40 90 4 43 1 50 -23 69 -33 26 -100 29 -129 7z m-151 -285 c-5 -8 -11
-8 -17 -2 -6 6 -7 16 -3 22 5 8 11 8 17 2 6 -6 7 -16 3 -22z m-28 -56 c-3 -20
-13 -44 -22 -54 -10 -11 -30 -91 -52 -201 -36 -187 -45 -326 -30 -494 8 -107
44 -234 104 -375 50 -116 217 -367 288 -432 83 -76 290 -228 312 -228 6 0 16
-6 22 -14 7 -8 27 -18 44 -21 18 -4 39 -13 47 -20 19 -16 77 -35 105 -35 12 0
33 -8 46 -19 15 -11 74 -28 159 -44 157 -29 302 -33 443 -11 51 8 106 16 122
18 45 5 114 25 170 51 49 22 154 49 162 42 2 -2 -3 -10 -12 -17 -8 -7 -15 -18
-15 -25 0 -7 -17 -27 -37 -43 -21 -17 -58 -50 -83 -74 -42 -39 -262 -198 -275
-198 -4 0 -31 -12 -61 -26 -58 -27 -248 -84 -299 -89 -16 -2 -59 -9 -95 -15
-36 -6 -84 -9 -107 -5 -23 3 -50 2 -60 -4 -23 -12 -371 45 -393 64 -8 8 -37
19 -65 26 -27 6 -59 20 -71 30 -11 11 -26 19 -33 19 -7 0 -24 9 -38 20 -14 11
-31 20 -38 20 -7 0 -18 6 -24 14 -7 8 -24 17 -38 21 -24 6 -154 100 -161 117
-2 4 -26 24 -53 44 -27 19 -65 59 -84 87 -18 29 -50 67 -70 86 -19 18 -48 58
-64 90 -15 31 -40 74 -54 95 -15 21 -27 45 -27 53 0 7 -7 24 -15 37 -9 13 -26
61 -39 107 -14 46 -34 117 -46 158 -18 65 -34 189 -32 261 6 238 17 335 43
368 10 13 23 49 29 80 7 31 18 64 25 72 7 8 18 34 24 56 6 23 18 47 26 54 8 7
15 18 15 25 0 8 16 34 35 59 19 25 37 57 41 70 10 41 191 236 219 236 15 0 17
-6 12 -36z m274 -3186 c10 -12 15 -27 13 -32 -5 -13 -168 -15 -181 -3 -4 5 8
22 27 39 31 26 40 29 80 24 30 -4 51 -14 61 -28z m-130 -129 c19 -19 21 -29
15 -76 -11 -90 -26 -106 -80 -82 -46 21 -73 131 -40 163 23 23 80 20 105 -5z
m199 -9 c10 -19 2 -55 -25 -112 -19 -40 -52 -62 -81 -56 -16 3 -19 12 -16 63
4 83 18 123 45 127 36 6 67 -3 77 -22z"></path>
</g>
</svg>